<svg width="184" height="40" viewBox="0 0 184 40" fill="none" xmlns="http://www.w3.org/2000/svg">
<path d="M22.368 13.856C22.368 16.64 21.408 18.96 19.488 20.816C17.6 22.64 14.704 23.552 10.8 23.552H4.368V37.52H0V19.952V17V7.664V4.064H10.8C14.576 4.064 17.44 4.976 19.392 6.8C21.376 8.624 22.368 10.976 22.368 13.856ZM10.8 19.952C13.232 19.952 15.024 19.424 16.176 18.368C17.328 17.312 17.904 15.808 17.904 13.856C17.904 9.728 15.536 7.664 10.8 7.664H4.368V17V19.952H10.8Z" fill="black"/>
<path d="M51.7969 23.36C51.7969 24.192 51.7489 25.072 51.6529 26H30.6289C30.7889 28.592 31.6689 30.624 33.2689 32.096C34.9009 33.536 36.8689 34.256 39.1729 34.256C41.0609 34.256 42.6289 33.824 43.8769 32.96C45.1569 32.064 46.0529 30.88 46.5649 29.408H51.2689C50.5649 31.936 49.1569 34 47.0449 35.6C44.9329 37.168 42.3089 37.952 39.1729 37.952C36.6769 37.952 34.4369 37.392 32.4529 36.272C30.5009 35.152 28.9649 33.568 27.8449 31.52C26.7249 29.44 26.1649 27.04 26.1649 24.32C26.1649 21.6 26.7089 19.216 27.7969 17.168C28.8849 15.12 30.4049 13.552 32.3569 12.464C34.3409 11.344 36.6129 10.784 39.1729 10.784C41.6689 10.784 43.8769 11.328 45.7969 12.416C47.7169 13.504 49.1889 15.008 50.2129 16.928C51.2689 18.816 51.7969 20.96 51.7969 23.36ZM47.2849 22.448C47.2849 20.784 46.9169 19.36 46.1809 18.176C45.4449 16.96 44.4369 16.048 43.1569 15.44C41.9089 14.8 40.5169 14.48 38.9809 14.48C36.7729 14.48 34.8849 15.184 33.3169 16.592C31.7809 18 30.9009 19.952 30.6769 22.448H47.2849Z" fill="black"/>
<path d="M61.9305 2V37.52H57.5625V2H61.9305Z" fill="black"/>
<path d="M92.703 11.216V37.52H88.335V33.632C87.503 34.976 86.335 36.032 84.831 36.8C83.359 37.536 81.727 37.904 79.935 37.904C77.887 37.904 76.047 37.488 74.415 36.656C72.783 35.792 71.487 34.512 70.527 32.816C69.599 31.12 69.135 29.056 69.135 26.624V11.216H73.455V26.048C73.455 28.64 74.111 30.64 75.423 32.048C76.735 33.424 78.527 34.112 80.799 34.112C83.135 34.112 84.975 33.392 86.319 31.952C87.663 30.512 88.335 28.416 88.335 25.664V11.216H92.703Z" fill="black"/>
<path d="M98.4461 24.32C98.4461 21.6 98.9901 19.232 100.078 17.216C101.166 15.168 102.67 13.584 104.59 12.464C106.542 11.344 108.766 10.784 111.262 10.784C114.494 10.784 117.15 11.568 119.23 13.136C121.342 14.704 122.734 16.88 123.406 19.664H118.702C118.254 18.064 117.374 16.8 116.062 15.872C114.782 14.944 113.182 14.48 111.262 14.48C108.766 14.48 106.75 15.344 105.214 17.072C103.678 18.768 102.91 21.184 102.91 24.32C102.91 27.488 103.678 29.936 105.214 31.664C106.75 33.392 108.766 34.256 111.262 34.256C113.182 34.256 114.782 33.808 116.062 32.912C117.342 32.016 118.222 30.736 118.702 29.072H123.406C122.702 31.76 121.294 33.92 119.182 35.552C117.07 37.152 114.43 37.952 111.262 37.952C108.766 37.952 106.542 37.392 104.59 36.272C102.67 35.152 101.166 33.568 100.078 31.52C98.9901 29.472 98.4461 27.072 98.4461 24.32Z" fill="black"/>
<path d="M142.29 10.736C144.274 10.736 146.066 11.168 147.666 12.032C149.266 12.864 150.514 14.128 151.41 15.824C152.338 17.52 152.802 19.584 152.802 22.016V37.52H148.482V22.64C148.482 20.016 147.826 18.016 146.514 16.64C145.202 15.232 143.41 14.528 141.138 14.528C138.834 14.528 136.994 15.248 135.618 16.688C134.274 18.128 133.602 20.224 133.602 22.976V37.52H129.234V2H133.602V14.96C134.466 13.616 135.65 12.576 137.154 11.84C138.69 11.104 140.402 10.736 142.29 10.736Z" fill="black"/>
<path d="M183.938 23.36C183.938 24.192 183.89 25.072 183.794 26H162.77C162.93 28.592 163.809 30.624 165.41 32.096C167.042 33.536 169.01 34.256 171.314 34.256C173.202 34.256 174.77 33.824 176.018 32.96C177.298 32.064 178.194 30.88 178.706 29.408H183.41C182.705 31.936 181.298 34 179.186 35.6C177.074 37.168 174.45 37.952 171.314 37.952C168.818 37.952 166.578 37.392 164.594 36.272C162.642 35.152 161.106 33.568 159.986 31.52C158.866 29.44 158.305 27.04 158.305 24.32C158.305 21.6 158.849 19.216 159.938 17.168C161.026 15.12 162.545 13.552 164.497 12.464C166.481 11.344 168.754 10.784 171.314 10.784C173.81 10.784 176.017 11.328 177.938 12.416C179.858 13.504 181.33 15.008 182.354 16.928C183.41 18.816 183.938 20.96 183.938 23.36ZM179.426 22.448C179.426 20.784 179.058 19.36 178.322 18.176C177.586 16.96 176.578 16.048 175.298 15.44C174.05 14.8 172.658 14.48 171.122 14.48C168.914 14.48 167.026 15.184 165.458 16.592C163.922 18 163.042 19.952 162.818 22.448H179.426Z" fill="black"/>
<path d="M0 17H6V19.95H0V17Z" fill="white"/>
<path d="M133.6 0H137.6V40H133.6V0Z" fill="white"/>
</svg>
