<svg width="184" height="36" viewBox="0 0 184 36" fill="none" xmlns="http://www.w3.org/2000/svg">
<path d="M22.368 11.856C22.368 14.64 21.408 16.96 19.488 18.816C17.6 20.64 14.704 21.552 10.8 21.552H4.368V35.52H0V17.952V15V5.664V2.064H10.8C14.576 2.064 17.44 2.976 19.392 4.8C21.376 6.624 22.368 8.976 22.368 11.856ZM10.8 17.952C13.232 17.952 15.024 17.424 16.176 16.368C17.328 15.312 17.904 13.808 17.904 11.856C17.904 7.728 15.536 5.664 10.8 5.664H4.368V15V17.952H10.8Z" fill="black"/>
<path d="M51.7969 21.36C51.7969 22.192 51.7489 23.072 51.6529 24H30.6289C30.7889 26.592 31.6689 28.624 33.2689 30.096C34.9009 31.536 36.8689 32.256 39.1729 32.256C41.0609 32.256 42.6289 31.824 43.8769 30.96C45.1569 30.064 46.0529 28.88 46.5649 27.408H51.2689C50.5649 29.936 49.1569 32 47.0449 33.6C44.9329 35.168 42.3089 35.952 39.1729 35.952C36.6769 35.952 34.4369 35.392 32.4529 34.272C30.5009 33.152 28.9649 31.568 27.8449 29.52C26.7249 27.44 26.1649 25.04 26.1649 22.32C26.1649 19.6 26.7089 17.216 27.7969 15.168C28.8849 13.12 30.4049 11.552 32.3569 10.464C34.3409 9.344 36.6129 8.784 39.1729 8.784C41.6689 8.784 43.8769 9.328 45.7969 10.416C47.7169 11.504 49.1889 13.008 50.2129 14.928C51.2689 16.816 51.7969 18.96 51.7969 21.36ZM47.2849 20.448C47.2849 18.784 46.9169 17.36 46.1809 16.176C45.4449 14.96 44.4369 14.048 43.1569 13.44C41.9089 12.8 40.5169 12.48 38.9809 12.48C36.7729 12.48 34.8849 13.184 33.3169 14.592C31.7809 16 30.9009 17.952 30.6769 20.448H47.2849Z" fill="black"/>
<path d="M61.9305 0V35.52H57.5625V0H61.9305Z" fill="black"/>
<path d="M92.703 9.216V35.52H88.335V31.632C87.503 32.976 86.335 34.032 84.831 34.8C83.359 35.536 81.727 35.904 79.935 35.904C77.887 35.904 76.047 35.488 74.415 34.656C72.783 33.792 71.487 32.512 70.527 30.816C69.599 29.12 69.135 27.056 69.135 24.624V9.216H73.455V24.048C73.455 26.64 74.111 28.64 75.423 30.048C76.735 31.424 78.527 32.112 80.799 32.112C83.135 32.112 84.975 31.392 86.319 29.952C87.663 28.512 88.335 26.416 88.335 23.664V9.216H92.703Z" fill="black"/>
<path d="M98.4461 22.32C98.4461 19.6 98.9901 17.232 100.078 15.216C101.166 13.168 102.67 11.584 104.59 10.464C106.542 9.344 108.766 8.784 111.262 8.784C114.494 8.784 117.15 9.568 119.23 11.136C121.342 12.704 122.734 14.88 123.406 17.664H118.702C118.254 16.064 117.374 14.8 116.062 13.872C114.782 12.944 113.182 12.48 111.262 12.48C108.766 12.48 106.75 13.344 105.214 15.072C103.678 16.768 102.91 19.184 102.91 22.32C102.91 25.488 103.678 27.936 105.214 29.664C106.75 31.392 108.766 32.256 111.262 32.256C113.182 32.256 114.782 31.808 116.062 30.912C117.342 30.016 118.222 28.736 118.702 27.072H123.406C122.702 29.76 121.294 31.92 119.182 33.552C117.07 35.152 114.43 35.952 111.262 35.952C108.766 35.952 106.542 35.392 104.59 34.272C102.67 33.152 101.166 31.568 100.078 29.52C98.9901 27.472 98.4461 25.072 98.4461 22.32Z" fill="black"/>
<path d="M142.29 8.736C144.274 8.736 146.066 9.168 147.666 10.032C149.266 10.864 150.514 12.128 151.41 13.824C152.338 15.52 152.802 17.584 152.802 20.016V35.52H148.482V20.64C148.482 18.016 147.826 16.016 146.514 14.64C145.202 13.232 143.41 12.528 141.138 12.528C138.834 12.528 136.994 13.248 135.618 14.688C134.274 16.128 133.602 18.224 133.602 20.976V35.52H129.234V0H133.602V12.96C134.466 11.616 135.65 10.576 137.154 9.84C138.69 9.104 140.402 8.736 142.29 8.736Z" fill="black"/>
<path d="M183.938 21.36C183.938 22.192 183.89 23.072 183.794 24H162.77C162.93 26.592 163.809 28.624 165.41 30.096C167.042 31.536 169.01 32.256 171.314 32.256C173.202 32.256 174.77 31.824 176.018 30.96C177.298 30.064 178.194 28.88 178.706 27.408H183.41C182.705 29.936 181.298 32 179.186 33.6C177.074 35.168 174.45 35.952 171.314 35.952C168.818 35.952 166.578 35.392 164.594 34.272C162.642 33.152 161.106 31.568 159.986 29.52C158.866 27.44 158.305 25.04 158.305 22.32C158.305 19.6 158.849 17.216 159.938 15.168C161.026 13.12 162.545 11.552 164.497 10.464C166.481 9.344 168.754 8.784 171.314 8.784C173.81 8.784 176.017 9.328 177.938 10.416C179.858 11.504 181.33 13.008 182.354 14.928C183.41 16.816 183.938 18.96 183.938 21.36ZM179.426 20.448C179.426 18.784 179.058 17.36 178.322 16.176C177.586 14.96 176.578 14.048 175.298 13.44C174.05 12.8 172.658 12.48 171.122 12.48C168.914 12.48 167.026 13.184 165.458 14.592C163.922 16 163.042 17.952 162.818 20.448H179.426Z" fill="black"/>
<path d="M0 15H6V17.95H0V15Z" fill="white"/>
</svg>
